<svg width="59" height="58" viewBox="0 0 59 58" fill="none" xmlns="http://www.w3.org/2000/svg">
<path d="M52.2328 42.494C50.4274 40.6873 48.3179 39.2126 46.001 38.1376C49.2684 35.4905 51.3529 31.4514 51.3529 26.9218C51.3529 18.9301 44.6883 12.3738 36.6967 12.4964C28.8276 12.619 22.4876 19.0311 22.4876 26.9218C22.4876 31.4514 24.5793 35.4905 27.8395 38.1376C25.5221 39.2118 23.4125 40.6866 21.6077 42.494C17.6695 46.4394 15.4336 51.6469 15.2894 57.2007C15.2874 57.2777 15.3009 57.3543 15.3291 57.426C15.3572 57.4977 15.3994 57.563 15.4532 57.6181C15.5069 57.6732 15.5712 57.717 15.6422 57.7469C15.7131 57.7768 15.7894 57.7922 15.8664 57.7922H19.9055C20.2156 57.7922 20.4753 57.5469 20.4825 57.2368C20.6195 53.0534 22.3145 49.1369 25.2934 46.1653C26.8177 44.6329 28.6308 43.418 30.6278 42.5909C32.6248 41.7639 34.766 41.3412 36.9275 41.3472C41.32 41.3472 45.4529 43.0566 48.5615 46.1653C51.5332 49.1369 53.2282 53.0534 53.3724 57.2368C53.3796 57.5469 53.6393 57.7922 53.9494 57.7922H57.9885C58.0655 57.7922 58.1418 57.7768 58.2127 57.7469C58.2837 57.717 58.348 57.6732 58.4017 57.6181C58.4555 57.563 58.4977 57.4977 58.5258 57.426C58.554 57.3543 58.5675 57.2777 58.5656 57.2007C58.4213 51.6469 56.1854 46.4394 52.2328 42.494ZM36.9275 36.1541C34.4607 36.1541 32.1382 35.1948 30.4 33.4493C29.5276 32.5838 28.8385 31.5515 28.3738 30.4139C27.9091 29.2763 27.6783 28.0568 27.6952 26.828C27.7168 24.4623 28.6617 22.1759 30.3134 20.4809C32.0445 18.7065 34.3597 17.7184 36.8337 17.6896C39.2788 17.6679 41.6518 18.62 43.3973 20.3294C45.186 22.0821 46.1669 24.4262 46.1669 26.9218C46.1669 29.3886 45.2076 31.7038 43.4622 33.4493C42.6058 34.3097 41.5873 34.9918 40.4657 35.4561C39.344 35.9204 38.1414 36.1576 36.9275 36.1541ZM18.8596 28.826C18.7947 28.1985 18.7587 27.5637 18.7587 26.9218C18.7587 25.775 18.8669 24.657 19.0688 23.5679C19.1193 23.3082 18.9823 23.0414 18.7442 22.9332C17.7633 22.4932 16.8617 21.8873 16.0828 21.1228C15.1649 20.2328 14.4426 19.1612 13.962 17.9765C13.4814 16.7917 13.253 15.5198 13.2914 14.2419C13.3563 11.9266 14.2868 9.72673 15.9096 8.06781C17.6912 6.24299 20.0858 5.24764 22.6319 5.27649C24.9327 5.29813 27.1542 6.18529 28.8348 7.75766C29.4046 8.2914 29.8951 8.88284 30.3062 9.51756C30.4505 9.74115 30.7317 9.83492 30.977 9.74837C32.2464 9.30839 33.588 8.99825 34.9656 8.85399C35.3695 8.81072 35.6003 8.37795 35.42 8.01732C33.0759 3.37955 28.2866 0.177112 22.7473 0.0905596C14.7484 -0.0320564 8.08386 6.52429 8.08386 14.5087C8.08386 19.0383 10.1683 23.0774 13.4357 25.7245C11.142 26.7848 9.02873 28.2489 7.1967 30.081C3.24414 34.0263 1.0082 39.2339 0.86395 44.7949C0.862025 44.8719 0.875527 44.9484 0.903662 45.0201C0.931796 45.0918 0.973994 45.1571 1.02777 45.2123C1.08154 45.2674 1.1458 45.3112 1.21677 45.3411C1.28773 45.371 1.36396 45.3863 1.44097 45.3863H5.48729C5.79744 45.3863 6.0571 45.1411 6.06431 44.8309C6.20135 40.6476 7.89633 36.7311 10.8752 33.7594C12.9957 31.6389 15.5923 30.1675 18.4269 29.4535C18.7082 29.3813 18.8957 29.1145 18.8596 28.826Z" fill="#B3C9E3"/>
</svg>
