<svg width="44" height="47" viewBox="0 0 44 47" fill="none" xmlns="http://www.w3.org/2000/svg">
<path d="M31.2961 25.5099C34.8479 27.1865 37.8763 29.7982 40.0567 33.0651C42.2371 36.3319 43.4873 40.1305 43.6731 44.0537C43.6978 44.4131 43.6506 44.7738 43.534 45.1147C43.4175 45.4555 43.234 45.7696 42.9944 46.0386C42.7548 46.3076 42.4639 46.526 42.1388 46.6811C41.8136 46.8361 41.4608 46.9246 41.101 46.9414C40.7411 46.9582 40.3816 46.903 40.0434 46.779C39.7052 46.6549 39.3952 46.4646 39.1316 46.2191C38.8679 45.9737 38.656 45.678 38.5082 45.3495C38.3603 45.021 38.2796 44.6663 38.2708 44.3062C38.0742 40.1391 36.2804 36.2079 33.2619 33.3284C30.2434 30.4489 26.2319 28.8424 22.0602 28.8424C17.8885 28.8424 13.8771 30.4489 10.8585 33.3284C7.84001 36.2079 6.04627 40.1391 5.84967 44.3062C5.80109 45.0115 5.47826 45.6698 4.95031 46.1401C4.42237 46.6103 3.73128 46.8552 3.02504 46.8222C2.31881 46.7892 1.65356 46.4809 1.17177 45.9635C0.689982 45.4461 0.429947 44.7605 0.447354 44.0537C0.632827 40.1309 1.88242 36.3325 4.06217 33.0657C6.24192 29.799 9.26964 27.187 12.8207 25.5099C10.5452 23.6118 8.90953 21.0589 8.13628 18.1983C7.36303 15.3377 7.48973 12.3084 8.49913 9.52234C9.50853 6.73631 11.3516 4.32884 13.7777 2.62741C16.2038 0.925981 19.0952 0.0131836 22.0584 0.0131836C25.0217 0.0131836 27.913 0.925981 30.3391 2.62741C32.7652 4.32884 34.6083 6.73631 35.6177 9.52234C36.6271 12.3084 36.7538 15.3377 35.9805 18.1983C35.2073 21.0589 33.5716 23.6118 31.2961 25.5099ZM31.0761 14.4276C31.0761 12.0364 30.1262 9.7432 28.4354 8.05239C26.7446 6.36159 24.4514 5.4117 22.0602 5.4117C19.6691 5.4117 17.3758 6.36159 15.685 8.05239C13.9942 9.7432 13.0443 12.0364 13.0443 14.4276C13.0443 16.8187 13.9942 19.112 15.685 20.8028C17.3758 22.4936 19.6691 23.4435 22.0602 23.4435C24.4514 23.4435 26.7446 22.4936 28.4354 20.8028C30.1262 19.112 31.0761 16.8187 31.0761 14.4276Z" fill="#B3C9E3"/>
</svg>
